<mxfile host="app.diagrams.net" modified="2021-11-16T08:59:21.579Z" agent="5.0 (Windows NT 10.0; Win64; x64) AppleWebKit/537.36 (KHTML, like Gecko) Chrome/96.0.4664.45 Safari/537.36" etag="-k5gk8zvnvxTvvCKAOs7" version="15.7.4" type="github">
  <diagram id="w8oxe7HZ_TKsxtPQDoJJ" name="main">
    <mxGraphModel dx="865" dy="483" grid="1" gridSize="10" guides="1" tooltips="1" connect="1" arrows="1" fold="1" page="1" pageScale="1" pageWidth="827" pageHeight="1169" math="0" shadow="0">
      <root>
        <mxCell id="0" />
        <mxCell id="1" parent="0" />
        <mxCell id="ONCxWgYXJXnaVigh9Xd3-5" value="" style="edgeStyle=orthogonalEdgeStyle;rounded=0;orthogonalLoop=1;jettySize=auto;html=1;" edge="1" parent="1" source="ONCxWgYXJXnaVigh9Xd3-3" target="ONCxWgYXJXnaVigh9Xd3-4">
          <mxGeometry relative="1" as="geometry" />
        </mxCell>
        <mxCell id="ONCxWgYXJXnaVigh9Xd3-3" value="" style="rounded=0;whiteSpace=wrap;html=1;sketch=0;fillColor=#ffe6cc;strokeColor=#d79b00;" vertex="1" parent="1">
          <mxGeometry x="160" y="380" width="120" height="60" as="geometry" />
        </mxCell>
        <mxCell id="ONCxWgYXJXnaVigh9Xd3-9" value="" style="edgeStyle=orthogonalEdgeStyle;rounded=0;orthogonalLoop=1;jettySize=auto;html=1;" edge="1" parent="1" source="ONCxWgYXJXnaVigh9Xd3-4" target="ONCxWgYXJXnaVigh9Xd3-3">
          <mxGeometry relative="1" as="geometry" />
        </mxCell>
        <mxCell id="ONCxWgYXJXnaVigh9Xd3-4" value="网络" style="rounded=0;whiteSpace=wrap;html=1;sketch=0;fillColor=#ffe6cc;strokeColor=#d79b00;" vertex="1" parent="1">
          <mxGeometry x="360" y="380" width="120" height="60" as="geometry" />
        </mxCell>
        <mxCell id="ONCxWgYXJXnaVigh9Xd3-12" value="" style="edgeStyle=orthogonalEdgeStyle;rounded=0;orthogonalLoop=1;jettySize=auto;html=1;" edge="1" parent="1" source="ONCxWgYXJXnaVigh9Xd3-6" target="ONCxWgYXJXnaVigh9Xd3-4">
          <mxGeometry relative="1" as="geometry" />
        </mxCell>
        <mxCell id="ONCxWgYXJXnaVigh9Xd3-6" value="" style="whiteSpace=wrap;html=1;rounded=0;strokeColor=#d79b00;fillColor=#ffe6cc;sketch=0;" vertex="1" parent="1">
          <mxGeometry x="590" y="380" width="120" height="60" as="geometry" />
        </mxCell>
      </root>
    </mxGraphModel>
  </diagram>
</mxfile>
